<?xml version="1.0" encoding="UTF-8"?><svg id="Layer_1" xmlns="http://www.w3.org/2000/svg" width="347.21" height="165.11" viewBox="0 0 347.21 165.11"><defs><style>.cls-1,.cls-2,.cls-3,.cls-4{stroke-miterlimit:10;stroke-width:.3px;}.cls-1,.cls-3{stroke:#000;}.cls-2{stroke:#1d1d1b;}.cls-3{fill:#ffebeb;}.cls-4{fill:#1d1d1b;stroke:#fff;stroke-linecap:round;}</style></defs><path class="cls-1" d="M321.48,4.33c-.52,2.8-2.08,8.03-7.55,13.31-3.7,3.58-7.89,5.9-10.88,7.3,2.86,1.15,7.22,3.22,11.11,6.67,4.97,4.4,6.67,8.82,7.32,11.2.68-2.5,2.28-6.59,6.39-10.91,4.01-4.22,8.71-6.87,11.74-8.33-2.79-1.01-7.18-2.93-11.01-6.29-5.93-5.2-6.92-10.67-7.13-12.95Z"/><path d="M12.37,120.77l.1-6.44h17.93l.1,9.55c0,1.93.34,3.39,1.02,4.38.68,1,1.81,1.5,3.38,1.5,2.39,0,3.59-2.11,3.59-6.33,0-3.11-.56-5.55-1.69-7.33-1.13-1.78-2.92-3.66-5.38-5.66l-9.53-7.99c-3.28-2.74-5.64-5.57-7.07-8.49-1.43-2.92-2.15-7.05-2.15-12.38,0-4.14,1.01-7.68,3.02-10.6,2.01-2.92,4.7-5.12,8.04-6.6,3.35-1.48,7.07-2.22,11.17-2.22,14.55,0,21.83,7.84,21.83,23.53v1.55h-18.55v-3.11c0-1.92-.29-3.57-.87-4.94-.58-1.37-1.55-2.05-2.92-2.05-1.23,0-2.17.39-2.82,1.17-.65.78-.97,1.83-.97,3.16,0,2.96,1.06,5.26,3.18,6.88l11.07,8.77c3.96,3.18,7,6.64,9.12,10.38,2.12,3.74,3.18,8.46,3.18,14.15,0,7.55-1.98,13.36-5.94,17.43-3.96,4.07-9.5,6.11-16.6,6.11-14.82,0-22.24-8.14-22.24-24.42Z"/><path d="M67.08,138.31c-3.35-4.59-5.02-11.43-5.02-20.54v-32.63c0-7.47,1.98-13.17,5.94-17.09,3.96-3.92,9.49-5.88,16.6-5.88,14.41,0,21.62,7.66,21.62,22.98v5.88c0,5.92-.07,10.73-.2,14.43h-26.03v15.76c0,2.81.27,5.01.82,6.6.55,1.59,1.71,2.39,3.48,2.39,1.37,0,2.34-.44,2.92-1.33.58-.89.92-1.9,1.02-3.05.1-1.15.15-2.83.15-5.05v-7.88h17.83v4.66c0,9.47-1.69,16.45-5.07,20.92-3.38,4.48-9.21,6.72-17.47,6.72-7.72,0-13.25-2.29-16.6-6.88ZM88.4,95.79v-10.43c0-5.84-1.33-8.77-4-8.77-3.01,0-4.51,2.92-4.51,8.77v10.43h8.5Z"/><path d="M112.68,63.05h17.93v10.32c.75-3.33,2.05-6.03,3.89-8.1,1.84-2.07,4.3-3.11,7.38-3.11,5.05,0,8.79,1.68,11.22,5.05,2.42,3.37,3.64,8.16,3.64,14.38v62.72h-17.62v-60.72c0-1.78-.32-3.29-.97-4.55-.65-1.26-1.66-1.89-3.02-1.89-1.84,0-3.06.91-3.64,2.72-.58,1.81-.87,4.24-.87,7.27v57.17h-17.93V63.05Z"/><path d="M162.37,145.52h8.61c1.23,0,1.84-.56,1.84-1.67,0-.52-.04-.92-.1-1.22l-11.68-79.59h17.11l3.38,39.63,1.64,20.2,1.95-20.2,4-39.63h17.21l-13.94,85.47c-.48,3.18-1.45,5.53-2.92,7.05-1.47,1.52-3.77,2.28-6.92,2.28h-20.19v-12.32Z"/><path d="M212.74,138.92c-2.15-4.18-3.23-10.16-3.23-17.93,0-6.36.77-11.25,2.31-14.65,1.54-3.4,3.67-5.9,6.4-7.49,2.73-1.59,6.9-3.35,12.5-5.27l4.92-1.78v-8.33c0-2.15-.39-3.79-1.18-4.94-.79-1.15-1.73-1.72-2.82-1.72-.96,0-1.79.48-2.51,1.44-.72.96-1.08,2.26-1.08,3.88v4.88h-17.42v-2.66c0-7.99,1.72-13.69,5.17-17.09,3.45-3.4,9.07-5.11,16.86-5.11,6.22,0,11.27,1.76,15.17,5.27,3.89,3.52,5.84,8.49,5.84,14.93v61.94h-17.83v-9.66c-.89,3.33-2.31,5.92-4.25,7.77-1.95,1.85-4.25,2.78-6.92,2.78-5.81,0-9.79-2.09-11.94-6.27ZM234.66,128.26c.58-1.22.87-2.72.87-4.5v-22.64c-2.66,1.11-4.63,2.52-5.89,4.22-1.27,1.7-1.9,4.07-1.9,7.1v10.43c0,4.81,1.33,7.22,4,7.22,1.37,0,2.34-.61,2.92-1.83Z"/><path d="M260.54,63.05h17.93v10.32c.75-3.33,2.05-6.03,3.89-8.1,1.84-2.07,4.3-3.11,7.38-3.11,5.05,0,8.79,1.68,11.22,5.05,2.42,3.37,3.64,8.16,3.64,14.38v62.72h-17.62v-60.72c0-1.78-.32-3.29-.97-4.55-.65-1.26-1.66-1.89-3.02-1.89-1.84,0-3.06.91-3.64,2.72-.58,1.81-.87,4.24-.87,7.27v57.17h-17.93V63.05Z"/><path d="M311.67,144.3V48.39h18.24v95.91h-18.24Z"/><path class="cls-4" d="M37.41,34.98l-6.74,5.17-13.25,10.16h15.85l-.83,18.98c4.36-6.86,8.71-13.71,13.07-20.57,8.05,1.14,16.11,2.28,24.16,3.41l-15.72-13.46,3.91-22.34-14.31,9.93-25.43-9.93,19.29,18.65Z"/><path class="cls-3" d="M54.16,49.13l-4.4-1.94-8.65-3.82,3.61,7.72-10.7,4.52c4.79.34,9.58.69,14.37,1.03,1.21,4.22,2.41,8.43,3.62,12.65l3.87-11.14,13.27-3.89-8.76-4.4-.3-14.96-5.93,14.23Z"/><line class="cls-2" x1="305.37" y1="25.04" x2="51.59" y2="25.04"/></svg>