<?xml version="1.0" encoding="UTF-8"?><svg id="Layer_1" xmlns="http://www.w3.org/2000/svg" width="1909.31" height="1111.01" viewBox="0 0 1909.31 1111.01"><defs><style>.cls-1,.cls-2,.cls-3,.cls-4{stroke-miterlimit:10;stroke-width:.3px;}.cls-1,.cls-3{stroke:#000;}.cls-5{fill:#ddb8b8;}.cls-2{stroke:#1d1d1b;}.cls-2,.cls-3{fill:none;}.cls-2,.cls-4{stroke-linecap:round;}.cls-6{fill:#f6f5f1;}.cls-4{fill:#1d1d1b;stroke:#fff;}</style></defs><rect class="cls-6" x="7.76" y="3.81" width="1893.8" height="1103.24"/><line class="cls-1" x1="1605.81" y1="158.28" x2="1606.7" y2="745.04"/><path class="cls-1" d="M1605.8,158.28c-.58,4.61-2.32,13.25-8.43,21.97-4.14,5.9-8.81,9.74-12.15,12.05,3.2,1.89,8.06,5.31,12.4,11,5.54,7.26,7.45,14.55,8.17,18.48.76-4.12,2.55-10.88,7.14-18.01,4.48-6.96,9.72-11.33,13.11-13.74-3.12-1.67-8.01-4.84-12.29-10.38-6.62-8.58-7.72-17.61-7.96-21.37Z"/><path class="cls-5" d="M1626.14,134.35c-.33,2.31-1.32,6.63-4.78,10.98-2.35,2.95-5,4.87-6.9,6.03,1.81.95,4.57,2.66,7.04,5.5,3.15,3.63,4.23,7.27,4.64,9.24.43-2.06,1.45-5.44,4.05-9.01,2.54-3.48,5.52-5.67,7.44-6.87-1.77-.84-4.55-2.42-6.97-5.19-3.76-4.29-4.38-8.81-4.52-10.69Z"/><circle class="cls-2" cx="1731.33" cy="166.1" r="237.16"/><line class="cls-1" x1="1767.61" y1="93.43" x2="1769.16" y2="540.42"/><path class="cls-3" d="M1769.3,539.55c-.33,2.31-1.32,6.63-4.78,10.98-2.35,2.95-5,4.87-6.9,6.03,1.81.95,4.57,2.66,7.04,5.5,3.15,3.63,4.23,7.27,4.64,9.24.43-2.06,1.45-5.44,4.05-9.01,2.54-3.48,5.52-5.67,7.44-6.87-1.77-.84-4.55-2.42-6.97-5.19-3.76-4.29-4.38-8.81-4.52-10.69Z"/><path class="cls-3" d="M1767.65,61.89c-.33,2.31-1.32,6.63-4.78,10.98-2.35,2.95-5,4.87-6.9,6.03,1.81.95,4.57,2.66,7.04,5.5,3.15,3.63,4.23,7.27,4.64,9.24.43-2.06,1.45-5.44,4.05-9.01,2.54-3.48,5.52-5.67,7.44-6.87-1.77-.84-4.55-2.42-6.97-5.19-3.76-4.29-4.38-8.81-4.52-10.69Z"/><path class="cls-4" d="M1835.49,249.43l-4.16,3.35-8.18,6.58h9.79l-.51,12.3c2.69-4.44,5.38-8.88,8.07-13.33,4.97.74,9.95,1.47,14.92,2.21l-9.71-8.72,2.41-14.47-8.84,6.43-15.71-6.43,11.91,12.08Z"/><path class="cls-5" d="M1852.93,269.6l-2.45-1.79-4.82-3.51,1.05,5.16-7.43,1.22c2.95.88,5.9,1.76,8.85,2.63.09,2.71.18,5.42.27,8.13l4.19-6.17,8.93-.49-4.8-3.88,2.18-9.06-5.97,7.74Z"/><path class="cls-1" d="M1607.99,736.22c-.58,4.61-2.32,13.25-8.43,21.97-4.14,5.9-8.81,9.74-12.15,12.05,3.2,1.89,8.06,5.31,12.4,11,5.54,7.26,7.45,14.55,8.17,18.48.76-4.12,2.55-10.88,7.14-18.01,4.48-6.96,9.72-11.33,13.11-13.74-3.12-1.67-8.01-4.84-12.29-10.38-6.62-8.58-7.72-17.61-7.96-21.37Z"/></svg>