<?xml version="1.0" encoding="UTF-8"?>
<svg id="Layer_1" xmlns="http://www.w3.org/2000/svg" xmlns:xlink="http://www.w3.org/1999/xlink" version="1.1" viewBox="0 0 2786.9 514.4">
  <!-- Generator: Adobe Illustrator 29.1.0, SVG Export Plug-In . SVG Version: 2.1.0 Build 142)  -->
  <defs>
    <style>
      .st0 {
        fill: #f6f5f1;
      }

      .st0, .st1 {
        stroke: #f6f5f1;
      }

      .st0, .st1, .st2, .st3 {
        stroke-miterlimit: 10;
      }

      .st1 {
        fill: none;
      }

      .st4 {
        isolation: isolate;
      }

      .st2, .st3 {
        stroke: #fff;
      }

      .st3 {
        fill: #ddb8b8;
      }
    </style>
  </defs>
  <rect x=".1" y="-2.8" width="2786.9" height="517.1"/>
  <polygon class="st3" points="1773.9 170.8 1573.5 130.8 1600.9 40 1801.4 80 1773.9 170.8"/>
  <path class="st2" d="M1602.7,117.1c-2-3.5-2.1-8.1-.3-13.8l13.9-45.8,13.8,2.8-13.7,45.3c-.6,2-.8,3.6-.8,4.8,0,1.2.9,1.9,2.3,2.2,1.4.3,2.5,0,3.3-1.1.8-1,1.5-2.5,2.1-4.6l13.7-45.3,13.8,2.8-13.9,45.8c-1.7,5.7-4.5,9.8-8.2,12.1-3.7,2.4-8.5,2.9-14.4,1.8-5.8-1.2-9.8-3.5-11.7-7h0Z"/>
  <path class="st2" d="M1635.3,127.6l17.7-31.7,2.9-30.6,13.9,2.8-2.8,22.3,9.8-20.9,14,2.8-15,28.2-2.4,34.7-14.4-2.9,2.9-25.4-11.9,23.6-14.5-2.9h0Z"/>
  <path class="st2" d="M1675.4,135.6l35.6-59.6,14.7,2.9-35.6,59.5-14.7-2.9Z"/>
  <path class="st2" d="M1715.5,139.6c-2-3.5-2.1-8.1-.3-13.8l13.9-45.8,13.8,2.8-13.7,45.3c-.6,2-.8,3.6-.8,4.8,0,1.2.9,1.9,2.3,2.2,1.4.3,2.5,0,3.3-1.1s1.5-2.5,2.1-4.6l13.7-45.3,13.8,2.8-13.9,45.8c-1.7,5.7-4.5,9.8-8.2,12.1-3.7,2.4-8.5,2.9-14.4,1.8s-9.8-3.5-11.7-7h0Z"/>
  <path class="st2" d="M1749.5,150.4l18.9-62.6,13.7,2.7-18.9,62.6-13.7-2.7Z"/>
  <polygon class="st3" points="665.5 377.7 444.5 395.3 435.4 319.4 656.3 301.8 665.5 377.7"/>
  <path class="st2" d="M490.5,373.9c-2.2-2.4-3.6-6.1-4.2-11.2l-2.6-21.3c-.5-4.6.1-8.1,2-10.6,1.9-2.5,5-4,9.4-4.3,3.5-.3,6.3.2,8.4,1.3s3.7,3,4.7,5.4,1.8,5.6,2.3,9.5l-10.4.8-.5-4.4c-.1-1.2-.4-2.1-.9-2.7s-1.1-.9-2-.8c-2,.2-2.9,1.5-2.6,3.9l2.9,24c.2,1.5.5,2.6,1,3.4.5.7,1.3,1.1,2.3,1s1.7-.5,2-1.3c.3-.8.4-2,.2-3.5l-.9-7.1-2.9.2-1-8.5,13-1,3.5,28.8-4.3.3-2.3-4c-1.5,3.2-4.3,5-8.2,5.3-3.9.3-6.9-.7-9-3.1h0Z"/>
  <path class="st2" d="M519.1,372.2c-1.6-2.1-2.6-5.1-3.1-9.1-.4-3.3-.2-5.9.5-7.7s1.8-3.2,3.4-4.2c1.5-1,4-2.1,7.2-3.3l2.9-1.2h0c0-.1-.5-4.3-.5-4.3-.1-1.1-.5-2-1-2.5-.5-.6-1.2-.8-1.8-.8-.6,0-1.1.3-1.4.9-.4.5-.5,1.2-.4,2.1l.3,2.5-10.5.8-.2-1.4c-.5-4.1.2-7.2,2.1-9.1s5.2-3.1,9.9-3.5c3.8-.3,6.9.4,9.5,2s4.1,4.1,4.5,7.5l3.9,32.2-10.8.9-.6-5c-.3,1.8-1,3.2-2.1,4.2-1.1,1.1-2.4,1.6-4,1.8-3.5.3-6-.6-7.6-2.7h0ZM531.7,365.6c.3-.7.4-1.5.2-2.4l-1.4-11.8c-1.5.7-2.6,1.5-3.3,2.5-.7,1-.9,2.2-.7,3.8l.7,5.4c.3,2.5,1.3,3.7,2.9,3.5.8,0,1.4-.4,1.7-1.1h0Z"/>
  <path class="st2" d="M543.3,330.5l10.6-.8.6,4.9c.3-1.8,1-3.3,2.1-4.2,1.1-1,2.7-1.6,4.9-1.7,1.8-.1,3.4.1,4.8.8,1.4.6,2.4,1.6,3.1,2.9.7-1.5,1.6-2.7,2.7-3.4s2.5-1.2,4.5-1.4c3.6-.3,6.2.5,7.8,2.4s2.7,4.8,3.1,8.6l3.6,30.8-10.9.9-3.7-31c-.3-2.7-1.2-4-2.7-3.9-1,0-1.7.6-2.1,1.6s-.4,2.1-.3,3.4l3.7,30.3-10.9.9-3.7-31c-.1-1.2-.4-2.1-.8-2.9s-1-1-1.8-1c-1.1,0-1.8.7-2.2,1.7-.3,1-.4,2.3-.2,3.7l3.6,29.8-10.6.8-5.1-42.2h0Z"/>
  <path class="st2" d="M597.7,365.6c-2.3-2.2-3.8-5.7-4.3-10.4l-2-16.9c-.5-3.9.4-6.9,2.5-9.2s5.4-3.5,9.7-3.9c8.7-.7,13.6,2.9,14.5,10.9l.4,3c.4,3.1.6,5.6.8,7.5l-15.8,1.2,1,8.2c.2,1.5.5,2.6.9,3.4.4.8,1.2,1.2,2.3,1.1.8,0,1.4-.3,1.7-.8.3-.5.4-1,.4-1.6,0-.6,0-1.5-.2-2.6l-.5-4.1,10.8-.9.3,2.4c.6,4.9,0,8.6-1.8,11.1-1.8,2.5-5.2,3.9-10.2,4.3-4.7.4-8.2-.5-10.5-2.8h0ZM607.9,342.5l-.7-5.4c-.4-3-1.4-4.5-3-4.4-1.8.1-2.5,1.7-2.2,4.8l.7,5.4,5.2-.4h0Z"/>
  <polygon class="st3" points="2589.6 229.7 2327.8 141.8 2373.1 52.7 2634.9 140.6 2589.6 229.7"/>
  <path class="st2" d="M2346.1,129.9l25.2-49.7,8.8,3-25.2,49.7-8.8-3Z"/>
  <path class="st2" d="M2358.5,134l25.4-49.9,9.5,3.2-25.4,49.9-9.5-3.2Z"/>
  <path class="st2" d="M2374.4,136.6c-.1-2.2.8-5.2,2.7-9l16-31.5,9.4,3.1-15,29.5c-.1.3-.5,1-1.1,2.2s-.9,2.1-.8,2.7.5,1,1.2,1.2c1,.3,1.8,0,2.5-.7.7-.8,1.4-2,2.3-3.6l.2-.4,15-29.5,9.2,3.1-21.5,42.3-9.3-3.1,2.3-4.5c-1.5,1.6-2.9,2.6-4.2,3.1-1.2.5-2.7.4-4.4-.1-2.9-1-4.4-2.6-4.5-4.8h0Z"/>
  <path class="st2" d="M2403.6,134.8l1.8-3.3,9.3,3.1-2.5,5c-.5,1-.7,1.8-.6,2.5s.5,1.1,1.4,1.4c1.2.4,2.4-.5,3.5-2.7.8-1.6,1.2-3,1.1-4.1-.1-1.1-.5-2.4-1.3-3.9l-2.8-5.8c-1-2-1.4-3.9-1.4-5.6,0-1.8.8-4,2.2-6.8,1.1-2.2,2.6-3.8,4.4-5,1.8-1.2,3.8-1.8,5.9-2s4.2,0,6.4.8c7.6,2.5,9.2,7.9,5.1,16.1l-.4.8-9.6-3.2.8-1.6c.5-1,.8-1.9.9-2.7s-.3-1.3-1-1.6c-.6-.2-1.2-.2-1.8.1-.5.3-1,.8-1.3,1.5-.8,1.5-.8,2.9-.2,4.1l3.4,6.5c1.2,2.4,1.9,4.7,2,7,.1,2.3-.6,5-2.1,7.9-2,3.9-4.6,6.6-7.7,8s-6.5,1.5-10.2.3c-7.7-2.6-9.4-8.1-5.1-16.6h0Z"/>
  <path class="st2" d="M2427,155.6c-.4-1.4.1-3.4,1.4-5.8l13.4-26.4-2.6-.9,3.9-7.7,2.6.9,4.6-9,9,3-4.6,9,2.7.9-3.9,7.7-2.7-.9-12.1,23.8c-.4.7-.6,1.3-.7,1.7,0,.4.1.6.6.8.4.1.7.2,1,.3.3,0,.6.1.7.2l-3.5,6.9c-.6,0-1.5-.1-2.6-.3-1.1-.2-2.1-.4-3.1-.7-2.4-.8-3.8-1.9-4.2-3.4h0Z"/>
  <path class="st2" d="M2461.1,118.9l9.3,3.1-2.4,4.7c1.3-1.5,2.8-2.5,4.4-3s3.3-.5,5,0l-4.3,8.4c-1.3-.4-2.9-.7-4.6-.9-1.8-.1-2.8,0-3.1.6l-16.4,32.4-9.3-3.1,21.5-42.3h0Z"/>
  <path class="st2" d="M2460.2,164.8c0-2.6,1-5.9,3.1-9.9,1.7-3.3,3.4-5.7,5.1-7.2s3.5-2.4,5.3-2.8c1.8-.4,4.5-.5,7.9-.6h3c0,0,0-.2,0-.2l2.1-4.2c.6-1.1.8-2,.7-2.8-.1-.7-.4-1.2-1-1.4-.5-.2-1.1,0-1.7.3-.6.4-1.2,1-1.6,1.8l-1.3,2.5-9-3,.7-1.4c2.1-4.2,4.5-6.8,7.2-8s6.1-1.1,10.1.3c3.2,1.1,5.4,2.9,6.5,5.4,1.1,2.5.8,5.4-.9,8.8l-16.4,32.3-9.2-3.1,2.6-5c-1.3,1.6-2.8,2.7-4.3,3.3-1.5.6-2.9.7-4.3.2-3-1-4.5-2.8-4.5-5.3h0ZM2474.4,163.1c.6-.5,1.2-1.3,1.6-2.2l6-11.8c-1.7.1-3.1.5-4.2,1.2-1.1.7-2.1,1.8-2.9,3.4l-2.8,5.4c-1.3,2.5-1.2,4,.2,4.4.7.2,1.4,0,2-.4h0Z"/>
  <path class="st2" d="M2487.2,175.8c-.4-1.4.1-3.4,1.4-5.8l13.4-26.4-2.6-.9,3.9-7.7,2.6.9,4.6-9,9,3-4.6,9,2.7.9-3.9,7.7-2.7-.9-12.1,23.8c-.4.7-.6,1.3-.7,1.7,0,.4.1.6.6.8.4.1.7.2,1,.3.3,0,.6.1.7.2l-3.5,6.9c-.6,0-1.5-.1-2.6-.3s-2.1-.4-3.1-.7c-2.4-.8-3.8-1.9-4.2-3.4h0Z"/>
  <path class="st2" d="M2499.7,181.4l21.5-42.3,9.3,3.1-21.5,42.3-9.3-3.1ZM2522.7,136.2l3.6-7.1,9.3,3.1-3.6,7.1-9.3-3.1Z"/>
  <path class="st2" d="M2518.8,173l8.6-17c2-4,4.7-6.9,8-8.5,3.3-1.7,6.7-1.9,10.3-.7,3.6,1.2,5.9,3.4,6.7,6.4.9,3.1.3,6.6-1.8,10.6l-8.6,17c-4.4,8.8-10.6,11.8-18.3,9.2-7.8-2.6-9.4-8.3-5-17h0ZM2529.8,181.9c.6-.5,1.2-1.2,1.7-2.2l10.5-20.7c1.2-2.5,1.2-3.9-.3-4.4-1.4-.5-2.8.5-4.1,3l-10.5,20.7c-.5,1-.7,1.9-.7,2.6s.5,1.2,1.2,1.4c.7.2,1.4.1,2.1-.3h0Z"/>
  <path class="st2" d="M2560.6,152.3l9.3,3.1-2.7,5.4c1.3-1.6,2.7-2.8,4.2-3.5,1.5-.8,3.1-.9,4.6-.3,2.6.9,4.1,2.4,4.5,4.6.4,2.2-.3,4.9-1.9,8.1l-16.6,32.7-9.1-3.1,16.1-31.6c.5-.9.7-1.8.7-2.5s-.4-1.3-1.1-1.5c-1-.3-1.8,0-2.6.8s-1.6,2.1-2.4,3.6l-15.1,29.8-9.3-3.1,21.5-42.3h0Z"/>
  <path class="st2" d="M2571,191l1.8-3.3,9.3,3.1-2.5,5c-.5,1-.7,1.8-.6,2.5s.5,1.1,1.4,1.4c1.2.4,2.4-.5,3.5-2.7.8-1.6,1.2-3,1.1-4.1-.1-1.1-.5-2.4-1.3-3.9l-2.8-5.8c-1-2-1.4-3.9-1.4-5.6s.8-4,2.2-6.8c1.1-2.2,2.6-3.8,4.4-5,1.8-1.2,3.8-1.9,5.9-2,2.1-.2,4.2,0,6.4.8,7.6,2.5,9.2,7.9,5.1,16.1l-.4.8-9.6-3.2.8-1.6c.5-1,.8-1.9.9-2.7,0-.8-.3-1.3-1-1.6-.6-.2-1.2-.2-1.8.1s-1,.8-1.3,1.5c-.8,1.5-.8,2.9-.2,4.1l3.4,6.5c1.2,2.4,1.9,4.7,2,7,.1,2.3-.6,5-2.1,7.9-2,3.9-4.6,6.6-7.7,8-3.1,1.4-6.5,1.5-10.2.3-7.7-2.6-9.4-8.1-5.1-16.6h0Z"/>
  <polygon class="st3" points="2129.7 287.4 1923.1 333.5 1897 256.3 2103.6 210.2 2129.7 287.4"/>
  <path class="st2" d="M1974.1,307.1l-24.5-51.8,11.9-2.6,14.7,32.8-7.9-34.3,11.3-2.5,14.6,32.8-8.1-34.3,12-2.7,11.3,54.7-14.6,3.2-11.7-25,5.8,26.3-14.8,3.3h0Z"/>
  <path class="st2" d="M2021.3,293c-3.2-2-5.6-5.6-7.3-10.7l-6.2-18.2c-1.4-4.2-1.1-7.6.9-10.5,2-2.8,5.4-4.7,10.3-5.8,9.9-2.2,16.3,1,19.2,9.5l1.1,3.3c1.1,3.3,2,6,2.6,8.1l-17.9,4,3,8.8c.5,1.6,1.1,2.8,1.8,3.6s1.6,1.1,2.8.8c.9-.2,1.5-.6,1.8-1.2.2-.6.3-1.2.1-1.9-.2-.7-.4-1.6-.8-2.8l-1.5-4.4,12.3-2.7.9,2.6c1.8,5.3,1.9,9.4.4,12.5-1.5,3-5.1,5.2-10.8,6.4-5.3,1.2-9.6.8-12.7-1.3h0ZM2028,266l-2-5.8c-1.1-3.3-2.6-4.7-4.4-4.3-2.1.5-2.6,2.3-1.4,5.6l2,5.8,5.9-1.3h0Z"/>
  <path class="st2" d="M2064.9,281.6l1.6,4.8-12.7,2.8-18.1-53.5,12.7-2.8,3.5,10.3c1.4-2.2,3.4-3.6,6-4.2,4-.9,7.2-.5,9.7,1.2,2.4,1.7,4.3,4.5,5.7,8.4l7.4,21.9c1.2,3.7,1.4,6.9.3,9.5s-3.4,4.4-7.1,5.2c-3.4.8-6.4-.5-9.1-3.7h0ZM2068.5,276.7c.2-.5.2-1.2,0-1.9s-.5-1.9-1-3.4l-6.4-18.9c-.5-1.6-1.1-2.8-1.7-3.5-.6-.7-1.4-1-2.5-.7-1.2.3-1.9.8-2,1.7-.2.9,0,2.1.5,3.6l6.4,19c.7,2,1.4,3.4,2.1,4.3.7.9,1.7,1.2,3,.9.9-.2,1.4-.6,1.6-1.1h0Z"/>
  <path class="st0" d="M350.4,147.2h89c26.9,0,46.1,6.1,57.6,18.2,11.5,12.1,17.2,29.9,17.2,53.2s-5.1,40.9-15.3,52.8c-10.2,11.9-28.5,17.8-54.9,17.8h-27.4v93h-66.2v-235h0ZM420.6,246.8c8.1,0,14-1,17.8-3.1,3.8-2.1,6.3-5.1,7.5-9,1.2-3.9,1.8-9.5,1.8-16.8s-1.6-17-4.7-21.3c-3.1-4.4-9.4-6.6-18.8-6.6h-7.5v56.9h3.9Z"/>
  <path class="st0" d="M632.2,367c-14.1-11.6-21.2-27.9-21.2-48.8v-111.9c0-20.2,7-35.5,21.2-45.8,14.1-10.3,34.8-15.5,61.9-15.5s47.8,5.1,61.9,15.5c14.1,10.3,21.2,25.6,21.2,45.8v111.9c0,21.2-7,37.5-21.2,49-14.1,11.5-34.8,17.2-61.9,17.2s-47.8-5.8-61.9-17.4h0ZM706.3,335.7c2.1-3.6,3.1-8.8,3.1-15.3v-114.9c0-5.1-1-9.2-2.9-12.4-2-3.2-6-4.8-12-4.8-11.2,0-16.8,5.9-16.8,17.8v114.6c0,6.8,1.2,11.9,3.5,15.3,2.3,3.5,6.7,5.2,12.9,5.2s10.1-1.8,12.2-5.5h0Z"/>
  <path class="st0" d="M882.7,147.2h103.5c16.5,0,29.2,2.6,38.2,7.8,9,5.2,15.1,12.5,18.2,21.9,3.1,9.4,4.7,21.4,4.7,36s-2.5,23.7-7.4,31.2c-5,7.5-13.6,12.7-25.9,15.6,10.2,1.5,17.6,5,22.2,10.7,4.6,5.6,6.9,13.3,6.9,23l-.8,88.9h-65.8v-91.9c0-6.6-1.8-10.8-5.5-12.6-3.7-1.8-10.3-2.7-20-2.7v107.2h-68.2v-235h0ZM967.3,234.2c9.4,0,14.1-7.1,14.1-21.3s-.4-10.9-1.2-13.9c-.8-3.1-2.2-5.2-4.3-6.4-2.1-1.2-5.1-1.8-9-1.8h-15.7v43.5h16.1Z"/>
  <path class="st0" d="M1177,382.2v-189.8h-40v-45.1h147.4v45.1h-40v189.8h-67.4Z"/>
  <path class="st0" d="M1381.6,382.2v-235h134.8v45.7h-67v37.5h63.5v45.1h-63.5v106.7h-67.8Z"/>
  <path class="st0" d="M1634.8,367c-14.1-11.6-21.2-27.9-21.2-48.8v-111.9c0-20.2,7.1-35.5,21.2-45.8,14.1-10.3,34.8-15.5,61.9-15.5s47.8,5.1,61.9,15.5c14.1,10.3,21.2,25.6,21.2,45.8v111.9c0,21.2-7.1,37.5-21.2,49-14.1,11.5-34.8,17.2-61.9,17.2s-47.8-5.8-61.9-17.4h0ZM1708.8,335.7c2.1-3.6,3.1-8.8,3.1-15.3v-114.9c0-5.1-1-9.2-2.9-12.4-2-3.2-5.9-4.8-11.9-4.8-11.2,0-16.8,5.9-16.8,17.8v114.6c0,6.8,1.2,11.9,3.5,15.3,2.3,3.5,6.7,5.2,12.9,5.2s10.1-1.8,12.2-5.5h0Z"/>
  <path class="st0" d="M1885.2,382.2v-235h67.4v195h69.4v39.9h-136.8Z"/>
  <path class="st0" d="M2116.1,382.2v-235h65.1v235h-65.1Z"/>
  <path class="st0" d="M2305,367c-14.1-11.6-21.2-27.9-21.2-48.8v-111.9c0-20.2,7.1-35.5,21.2-45.8,14.1-10.3,34.8-15.5,61.9-15.5s47.8,5.1,61.9,15.5c14.1,10.3,21.2,25.6,21.2,45.8v111.9c0,21.2-7.1,37.5-21.2,49-14.1,11.5-34.8,17.2-61.9,17.2s-47.8-5.8-61.9-17.4h0ZM2379,335.7c2.1-3.6,3.1-8.8,3.1-15.3v-114.9c0-5.1-1-9.2-2.9-12.4-2-3.2-5.9-4.8-11.9-4.8-11.2,0-16.9,5.9-16.9,17.8v114.6c0,6.8,1.2,11.9,3.5,15.3,2.4,3.5,6.7,5.2,12.9,5.2s10.1-1.8,12.1-5.5h0Z"/>
  <image class="st4" width="513" height="254" transform="translate(62.4 328.8) scale(.5)" xlink:href="portfolio-tekst-1.png"/>
  <polygon class="st3" points="1268.3 384.4 972.6 325.4 995.9 248.4 1291.6 307.4 1268.3 384.4"/>
  <path class="st2" d="M1001,318.7l6.2-42.9,10.8,2.1-3.2,23,9.8-21.7,11,2.2-3.2,23,9.7-21.7,11.8,2.4-19.3,40.2-12.6-2.5,3.4-24.4-10.5,23-13.9-2.8h0Z"/>
  <path class="st2" d="M1049.4,325.1c-1.6-2.8-1.8-6.5-.3-11.2l5.1-16.7c1.2-3.8,3.4-6.5,6.8-7.9s7.6-1.7,12.6-.7c10.1,2,14,6.9,11.6,14.8l-.9,3c-.9,3-1.7,5.5-2.4,7.4l-18.2-3.6-2.4,8.1c-.4,1.4-.6,2.6-.4,3.5.1.9.8,1.5,2.1,1.7,1,.2,1.7.1,2.3-.3.5-.4.9-.9,1.2-1.4s.5-1.4.9-2.6l1.2-4,12.5,2.5-.7,2.4c-1.5,4.9-3.7,8.2-6.8,10s-7.5,2.1-13.3,1c-5.4-1.1-8.9-3-10.6-5.8h0ZM1070.9,306.3l1.6-5.3c.9-3,.4-4.7-1.4-5-2.1-.4-3.6.9-4.5,3.9l-1.6,5.3,6,1.2h0Z"/>
  <path class="st2" d="M1094.7,332.7l-1.3,4.4-12.9-2.6,14.8-49.1,12.9,2.6-2.9,9.5c2.5-1.2,5.1-1.6,7.8-1,4.1.8,6.7,2.4,7.9,4.6,1.2,2.3,1.2,5.2.2,8.8l-6.1,20c-1,3.4-2.8,6-5.2,7.7s-5.5,2.2-9.3,1.4c-3.4-.7-5.4-2.8-5.9-6.4h0ZM1100.8,330.2c.5-.4.9-.9,1.2-1.5.3-.6.6-1.7,1-3.1l5.2-17.3c.4-1.5.6-2.6.5-3.4-.1-.8-.7-1.3-1.8-1.5-1.2-.2-2.1,0-2.8.6s-1.2,1.6-1.6,3l-5.3,17.4c-.6,1.8-.8,3.2-.7,4.2.1,1,.8,1.6,2.2,1.9.9.2,1.5,0,2-.3h0Z"/>
  <path class="st2" d="M1118.9,329.5l1.1-3.3,12.6,2.5-1.4,4.9c-.3,1-.3,1.8,0,2.4.3.6,1,1,2.1,1.2,1.7.3,2.8-.6,3.5-2.7.5-1.6.5-2.9,0-4-.5-1.1-1.5-2.3-2.9-3.6l-5.4-5.4c-1.9-1.9-3.1-3.6-3.6-5.3-.6-1.7-.4-3.9.4-6.6.6-2.1,1.9-3.8,3.8-5s4.1-2,6.7-2.2,5.3-.1,8.2.4c10.2,2,14.1,7.1,11.7,15.1l-.2.8-13-2.6.5-1.6c.3-1,.3-1.9.2-2.6s-.8-1.3-1.7-1.5c-.9-.2-1.6-.1-2.2.2-.6.3-1,.8-1.2,1.5-.5,1.5,0,2.8,1.2,4l6.4,6c2.3,2.2,3.9,4.4,4.8,6.6s.9,4.8,0,7.7c-1.2,3.9-3.5,6.6-6.9,8.1-3.4,1.5-7.6,1.8-12.6.8-10.4-2.1-14.3-7.3-11.8-15.6h0Z"/>
  <path class="st2" d="M1150.5,348.5l12.6-41.6,12.6,2.5-12.6,41.6-12.6-2.5ZM1163.9,304.2l2.1-6.9,12.6,2.5-2.1,6.9-12.6-2.5Z"/>
  <path class="st2" d="M1172.4,351.7c-.9-1.4-1-3.2-.3-5.6l7.8-26-3.5-.7,2.3-7.5,3.5.7,2.7-8.8,12.2,2.4-2.7,8.8,3.6.7-2.3,7.5-3.6-.7-7.1,23.3c-.2.7-.3,1.3-.3,1.6s.4.6,1,.7c.5.1.9.2,1.4.2.4,0,.7,0,.9.1l-2.1,6.8c-.8,0-1.8,0-3.3-.1s-2.8-.3-4.1-.5c-3.3-.7-5.4-1.7-6.3-3h0Z"/>
  <path class="st2" d="M1194,354c-1.6-2.8-1.8-6.5-.3-11.2l5.1-16.7c1.2-3.8,3.4-6.5,6.8-7.9s7.6-1.7,12.6-.7c10.1,2,14,6.9,11.6,14.8l-.9,3c-.9,3-1.7,5.5-2.4,7.4l-18.2-3.6-2.4,8.1c-.4,1.4-.6,2.6-.4,3.5.1.9.8,1.5,2.1,1.7,1,.2,1.7.1,2.2-.3s.9-.9,1.2-1.4.5-1.4.9-2.6l1.2-4,12.5,2.5-.7,2.4c-1.5,4.9-3.7,8.2-6.8,10s-7.5,2.1-13.3,1c-5.4-1.1-8.9-3-10.6-5.8h0ZM1215.5,335.2l1.6-5.3c.9-3,.4-4.7-1.4-5-2.1-.4-3.6.9-4.5,3.9l-1.6,5.3,6,1.2h0Z"/>
  <path class="st2" d="M1227.5,351.1l1.1-3.3,12.6,2.5-1.4,4.9c-.3,1-.3,1.8,0,2.4.3.6,1,1,2.1,1.2,1.7.3,2.8-.6,3.5-2.7.5-1.6.5-2.9,0-4-.5-1.1-1.5-2.3-2.9-3.6l-5.4-5.4c-1.9-1.9-3.1-3.6-3.6-5.3-.6-1.7-.4-3.9.4-6.6.6-2.1,1.9-3.8,3.8-5,1.9-1.2,4.1-2,6.7-2.2,2.6-.3,5.3-.1,8.2.4,10.2,2,14.1,7.1,11.7,15.1l-.2.8-13-2.6.5-1.6c.3-1,.3-1.9.2-2.6s-.8-1.3-1.7-1.5c-.9-.2-1.6-.1-2.2.2s-1,.8-1.2,1.5c-.5,1.5,0,2.8,1.2,4l6.4,6c2.3,2.2,3.9,4.4,4.8,6.6s.9,4.8,0,7.7c-1.2,3.9-3.5,6.6-6.9,8.1-3.4,1.5-7.6,1.8-12.6.8-10.4-2.1-14.3-7.3-11.8-15.6h0Z"/>
  <polygon class="st3" points="465.4 139.6 137.1 185.6 119.6 103.2 447.9 57.2 465.4 139.6"/>
  <path class="st2" d="M159.1,170.7l-5.4-54.2,20.6-2.9,17.1,52.6-11.6,1.6-2.7-8.5-7.4,1,1.1,8.7-11.8,1.7ZM169,151.6l5.5-.8-8.5-26.8h-.6c0,0,3.5,27.6,3.5,27.6h0Z"/>
  <path class="st2" d="M185.3,120.2l12.4-1.7,1.2,5.8c.1-1.9.7-3.6,1.7-4.9s2.6-2.2,4.7-2.4c3.5-.5,6.3,0,8.4,1.7,2.1,1.6,3.5,4.2,4.2,7.7l7.4,35.1-12.2,1.7-7.2-34c-.2-1-.6-1.8-1.2-2.5-.6-.6-1.4-.9-2.3-.8-1.3.2-2,.8-2.2,1.9-.2,1.1-.1,2.5.3,4.2l6.8,32-12.4,1.7-9.6-45.5h0Z"/>
  <path class="st2" d="M220,112.2l-1.6-7.6,12.4-1.7,1.6,7.6-12.4,1.7ZM230.3,160.7l-9.6-45.5,12.4-1.7,9.6,45.5-12.4,1.7Z"/>
  <path class="st2" d="M237.9,112.8l12.1-1.7,1.1,5.3c.1-2,.8-3.6,2-4.8,1.2-1.1,3-1.9,5.5-2.2,2-.3,3.9-.1,5.5.5s3,1.6,3.9,2.9c.7-1.7,1.6-3,2.7-3.9,1.1-.9,2.8-1.5,5.1-1.8,4.1-.6,7.1.1,9.2,2.1,2,1.9,3.5,5,4.4,9.1l6.9,33.3-12.5,1.8-7.1-33.4c-.6-2.9-1.8-4.3-3.5-4.1-1.2.2-1.9.8-2.2,1.9-.3,1.1-.3,2.3,0,3.8l6.9,32.7-12.4,1.7-7.1-33.4c-.3-1.3-.6-2.3-1.1-3-.5-.7-1.2-1.1-2.2-.9-1.3.2-2.1.9-2.4,2-.3,1.2-.3,2.5,0,4.1l6.8,32.1-12.1,1.7-9.6-45.5h0Z"/>
  <path class="st2" d="M301.9,147.6c-2-2.1-3.4-5.4-4.4-9.7-.8-3.6-.8-6.4-.1-8.4.7-2.1,1.8-3.7,3.5-4.8,1.7-1.1,4.4-2.5,8-4.2l3.2-1.5h0c0-.1-1-4.7-1-4.7-.2-1.2-.7-2.1-1.4-2.6-.7-.6-1.4-.8-2.2-.7-.7,0-1.2.4-1.6,1.1-.4.6-.5,1.4-.3,2.3l.6,2.7-12,1.7-.3-1.5c-1-4.5-.4-7.8,1.5-10.1,2-2.2,5.7-3.7,11.1-4.5,4.3-.6,8-.1,11.1,1.5,3.1,1.6,5,4.2,5.8,7.8l7.4,34.7-12.3,1.7-1.1-5.4c-.2,1.9-.9,3.5-2,4.8-1.1,1.2-2.6,2-4.5,2.2-4,.6-7-.2-9-2.4h0ZM315.8,139.5c.3-.7.3-1.6,0-2.6l-2.7-12.7c-1.7.9-2.9,1.9-3.6,2.9-.7,1.1-.8,2.5-.5,4.2l1.2,5.8c.6,2.7,1.8,3.9,3.6,3.6.9-.1,1.5-.6,1.8-1.3h0Z"/>
  <path class="st2" d="M339.3,144.1c-1.5-1-2.5-2.9-3.1-5.5l-6-28.4-3.5.5-1.8-8.3,3.5-.5-2-9.6,12.1-1.7,2,9.6,3.5-.5,1.8,8.3-3.5.5,5.4,25.6c.2.8.4,1.4.6,1.7s.6.5,1.2.4c.5,0,.9-.1,1.3-.2.4-.1.7-.2.8-.2l1.6,7.5c-.7.3-1.7.6-3,1s-2.6.6-3.9.8c-3.3.5-5.6.2-7.1-.9h0Z"/>
  <path class="st2" d="M346.8,94.4l-1.6-7.6,12.4-1.7,1.6,7.6-12.4,1.7ZM357.1,143l-9.6-45.5,12.4-1.7,9.6,45.5-12.4,1.7Z"/>
  <path class="st2" d="M371.1,127l-3.9-18.3c-.9-4.3-.3-7.9,2-10.9,2.2-2.9,5.8-4.7,10.6-5.4,4.8-.7,8.9,0,12.2,2.2s5.4,5.4,6.3,9.7l3.9,18.3c2,9.4-2.2,14.8-12.5,16.3s-16.5-2.5-18.5-11.9h0ZM389.9,129.3c.3-.7.4-1.6.2-2.6l-4.7-22.2c-.6-2.7-1.8-3.8-3.8-3.6s-2.6,1.7-2.1,4.4l4.7,22.2c.2,1.1.6,1.9,1.2,2.4s1.4.8,2.4.6,1.7-.6,2-1.2h0Z"/>
  <path class="st2" d="M400,90.1l12.4-1.7,1.2,5.8c.1-1.9.7-3.6,1.7-4.9,1-1.3,2.6-2.2,4.7-2.5,3.5-.5,6.3,0,8.4,1.7,2.1,1.7,3.5,4.2,4.2,7.7l7.5,35.1-12.2,1.7-7.2-34c-.2-1-.6-1.8-1.2-2.4s-1.4-.9-2.3-.8c-1.3.2-2,.8-2.2,1.9-.2,1.1-.1,2.5.3,4.2l6.8,32-12.4,1.7-9.6-45.5h0Z"/>
  <line class="st1" x1="337" y1="422.7" x2="2450" y2="424.2"/>
  <image class="st4" width="513" height="254" transform="translate(2475.7 330) scale(.5)" xlink:href="portfolio-tekst-2.png"/>
</svg>